ply
format ascii 1.0
element vertex 122
property float x
property float y
property float z
property float quality_longitudinal
property float quality_transverse
element face 240
property list uchar int vertex_indices
end_header
0.14086628 0 0.479746491 -0.2 0.594282529
0.121993773 0.0704331398 0.479746491 -0.199999996 0.636363634
0 0 0.5 0 0.545454545
0.0704331398 0.121993773 0.479746491 -0.199999996 0.636363634
8.62557225e-18 0.14086628 0.479746491 0.2 0.636363637
-0.0704331398 0.121993773 0.479746491 0.199999996 0.636363634
-0.121993773 0.0704331398 0.479746491 0.199999996 0.614853956
-0.14086628 1.72511445e-17 0.479746491 0.2 0.56827493
-0.121993773 -0.0704331398 0.479746491 0.199999996 0.521695903
-0.0704331398 -0.121993773 0.479746491 0.199999996 0.47511688
-2.58767159e-17 -0.14086628 0.479746491 -0.2 0.454545453
0.0704331398 -0.121993773 0.479746491 -0.199999996 0.50112448
0.121993773 -0.0704331398 0.479746491 -0.199999996 0.547703503
0.14086628 0 -0.479746491 -0.2 -0.47736584
0 0 -0.5 0 -0.454545455
0.121993773 0.0704331398 -0.479746491 -0.199999996 -0.523944866
0.0704331398 0.121993773 -0.479746491 -0.199999996 -0.545454544
8.62557225e-18 0.14086628 -0.479746491 0.2 -0.545454547
-0.0704331398 0.121993773 -0.479746491 0.199999996 -0.545454544
-0.121993773 0.0704331398 -0.479746491 0.199999996 -0.545454544
-0.14086628 1.72511445e-17 -0.479746491 0.2 -0.503373439
-0.121993773 -0.0704331398 -0.479746491 0.199999996 -0.456794413
-0.0704331398 -0.121993773 -0.479746491 0.199999996 -0.41021539
-2.58767159e-17 -0.14086628 -0.479746491 -0.2 -0.363636363
0.0704331398 -0.121993773 -0.479746491 -0.199999996 -0.38420779
0.121993773 -0.0704331398 -0.479746491 -0.199999996 -0.430786813
0.270320415 0 0.42062676 -0.400000013 0.631789843
0.234104335 0.135160208 0.42062676 -0.4 0.705763048
0.377874792 0 0.327430367 -0.600000003 0.64757297
0.327249169 0.188937396 0.327430367 -0.600000001 0.771191877
0.454815984 0 0.207707509 -0.799999986 0.632988319
0.393882215 0.227407992 0.207707509 -0.799999996 0.783378357
0.494910717 0 0.0711574182 -0.999999995 0.581852545
0.428605258 0.247455359 0.0711574182 -1 0.745500362
0.494910717 0 -0.0711574182 -0.999999995 -0.490943455
0.428605258 0.247455359 -0.0711574182 -1 -0.654591271
0.454815984 0 -0.207707509 -0.799999986 -0.482096019
0.393882215 0.227407992 -0.207707509 -0.799999996 -0.632486057
0.377874792 0 -0.327430367 -0.600000003 -0.470750006
0.327249169 0.188937396 -0.327430367 -0.600000001 -0.595698573
0.270320415 0 -0.42062676 -0.400000013 -0.484181133
0.234104335 0.135160208 -0.42062676 -0.4 -0.573565633
0.135160208 0.234104335 0.42062676 -0.4 0.727272728
0.188937396 0.327249169 0.327430367 -0.600000001 0.81818182
0.227407992 0.393882215 0.207707509 -0.799999996 0.909090909
0.247455359 0.428605258 0.0711574182 -1 0.909148183
0.247455359 0.428605258 -0.0711574182 -1 -0.818239093
0.227407992 0.393882215 -0.207707509 -0.799999996 -0.782876116
0.188937396 0.327249169 -0.327430367 -0.600000001 -0.72064714
0.135160208 0.234104335 -0.42062676 -0.4 -0.636363638
1.65523506e-17 0.270320415 0.42062676 0.400000013 0.727272734
2.31381575e-17 0.377874792 0.327430367 0.600000003 0.818181821
2.78494474e-17 0.454815984 0.207707509 0.799999986 0.909090905
3.03045426e-17 0.494910717 0.0711574182 0.999999995 1
3.03045426e-17 0.494910717 -0.0711574182 0.999999995 -0.90909091
2.78494474e-17 0.454815984 -0.207707509 0.799999986 -0.818181815
2.31381575e-17 0.377874792 -0.327430367 0.600000003 -0.727272731
1.65523506e-17 0.270320415 -0.42062676 0.400000013 -0.636363644
-0.135160208 0.234104335 0.42062676 0.4 0.727272728
-0.188937396 0.327249169 0.327430367 0.600000001 0.782901863
-0.227407992 0.393882215 0.207707509 0.799999996 0.819689357
-0.247455359 0.428605258 0.0711574182 1 0.841794563
-0.247455359 0.428605258 -0.0711574182 1 -0.818239093
-0.227407992 0.393882215 -0.207707509 0.799999996 -0.818181819
-0.188937396 0.327249169 -0.327430367 0.600000001 -0.72727273
-0.135160208 0.234104335 -0.42062676 0.4 -0.636363638
-0.234104335 0.135160208 0.42062676 0.4 0.664474723
-0.327249169 0.188937396 0.327430367 0.600000001 0.657953296
-0.393882215 0.227407992 0.207707509 0.799999996 0.669299299
-0.428605258 0.247455359 0.0711574182 1 0.678146741
-0.428605258 0.247455359 -0.0711574182 1 -0.654591271
-0.393882215 0.227407992 -0.207707509 0.799999996 -0.692469267
-0.327249169 0.188937396 -0.327430367 0.600000001 -0.680282787
-0.234104335 0.135160208 -0.42062676 0.4 -0.614853958
-0.270320415 3.31047012e-17 0.42062676 0.400000013 0.575090223
-0.377874792 4.6276315e-17 0.327430367 0.600000003 0.533004729
-0.454815984 5.56988948e-17 0.207707509 0.799999986 0.518909261
-0.494910717 6.06090852e-17 0.0711574182 0.999999995 0.514498924
-0.494910717 6.06090852e-17 -0.0711574182 0.999999995 -0.490943455
-0.454815984 5.56988948e-17 -0.207707509 0.799999986 -0.542079229
-0.377874792 4.6276315e-17 -0.327430367 0.600000003 -0.55666388
-0.270320415 3.31047012e-17 -0.42062676 0.400000013 -0.540880753
-0.234104335 -0.135160208 0.42062676 0.4 0.485705724
-0.327249169 -0.188937396 0.327430367 0.600000001 0.436710529
-0.393882215 -0.227407992 0.207707509 0.799999996 0.368519223
-0.428605258 -0.247455359 0.0711574182 1 0.350851108
-0.428605258 -0.247455359 -0.0711574182 1 -0.327295638
-0.393882215 -0.227407992 -0.207707509 0.799999996 -0.391689192
-0.327249169 -0.188937396 -0.327430367 0.600000001 -0.431715313
-0.234104335 -0.135160208 -0.42062676 0.4 -0.451496253
-0.135160208 -0.234104335 0.42062676 0.4 0.412129308
-0.188937396 -0.327249169 0.327430367 0.600000001 0.346303691
-0.227407992 -0.393882215 0.207707509 0.799999996 0.272225013
-0.247455359 -0.428605258 0.0711574182 1 0.187203287
-0.247455359 -0.428605258 -0.0711574182 1 -0.163647817
-0.227407992 -0.393882215 -0.207707509 0.799999996 -0.241299133
-0.188937396 -0.327249169 -0.327430367 0.600000001 -0.306766746
-0.135160208 -0.234104335 -0.42062676 0.4 -0.362111766
-4.96570551e-17 -0.270320415 0.42062676 -0.400000013 0.363636356
-6.94144691e-17 -0.377874792 0.327430367 -0.600000003 0.272727269
-8.35483454e-17 -0.454815984 0.207707509 -0.799999986 0.181818185
-9.09136278e-17 -0.494910717 0.0711574182 -0.999999995 0.09090909
-9.09136278e-17 -0.494910717 -0.0711574182 -0.999999995 -0
-8.35483454e-17 -0.454815984 -0.207707509 -0.799999986 -0.0909090954
-6.94144691e-17 -0.377874792 -0.327430367 -0.600000003 -0.181818179
-4.96570551e-17 -0.270320415 -0.42062676 -0.400000013 -0.272727266
0.135160208 -0.234104335 0.42062676 -0.4 0.453020856
0.188937396 -0.327249169 0.327430367 -0.600000001 0.397675836
0.227407992 -0.393882215 0.207707509 -0.799999996 0.332208223
0.247455359 -0.428605258 0.0711574182 -1 0.254556907
0.247455359 -0.428605258 -0.0711574182 -1 -0.163647817
0.227407992 -0.393882215 -0.207707509 -0.799999996 -0.181315923
0.188937396 -0.327249169 -0.327430367 -0.600000001 -0.255394601
0.135160208 -0.234104335 -0.42062676 -0.4 -0.321220218
0.234104335 -0.135160208 0.42062676 -0.4 0.542405343
0.327249169 -0.188937396 0.327430367 -0.600000001 0.522624403
0.393882215 -0.227407992 0.207707509 -0.799999996 0.482598282
0.428605258 -0.247455359 0.0711574182 -1 0.418204728
0.428605258 -0.247455359 -0.0711574182 -1 -0.327295638
0.393882215 -0.227407992 -0.207707509 -0.799999996 -0.331705982
0.327249169 -0.188937396 -0.327430367 -0.600000001 -0.345801439
0.234104335 -0.135160208 -0.42062676 -0.4 -0.394796634
3 0 1 2
3 1 3 2
3 3 4 2
3 4 5 2
3 5 6 2
3 6 7 2
3 7 8 2
3 8 9 2
3 9 10 2
3 10 11 2
3 11 12 2
3 12 0 2
3 13 14 15
3 15 14 16
3 16 14 17
3 17 14 18
3 18 14 19
3 19 14 20
3 20 14 21
3 21 14 22
3 22 14 23
3 23 14 24
3 24 14 25
3 25 14 13
3 0 26 27
3 0 27 1
3 26 28 29
3 26 29 27
3 28 30 31
3 28 31 29
3 30 32 33
3 30 33 31
3 32 34 35
3 32 35 33
3 34 36 37
3 34 37 35
3 36 38 39
3 36 39 37
3 38 40 41
3 38 41 39
3 40 13 15
3 40 15 41
3 1 27 42
3 1 42 3
3 27 29 43
3 27 43 42
3 29 31 44
3 29 44 43
3 31 33 45
3 31 45 44
3 33 35 46
3 33 46 45
3 35 37 47
3 35 47 46
3 37 39 48
3 37 48 47
3 39 41 49
3 39 49 48
3 41 15 16
3 41 16 49
3 3 42 50
3 3 50 4
3 42 43 51
3 42 51 50
3 43 44 52
3 43 52 51
3 44 45 53
3 44 53 52
3 45 46 54
3 45 54 53
3 46 47 55
3 46 55 54
3 47 48 56
3 47 56 55
3 48 49 57
3 48 57 56
3 49 16 17
3 49 17 57
3 4 50 58
3 4 58 5
3 50 51 59
3 50 59 58
3 51 52 60
3 51 60 59
3 52 53 61
3 52 61 60
3 53 54 62
3 53 62 61
3 54 55 63
3 54 63 62
3 55 56 64
3 55 64 63
3 56 57 65
3 56 65 64
3 57 17 18
3 57 18 65
3 5 58 66
3 5 66 6
3 58 59 67
3 58 67 66
3 59 60 68
3 59 68 67
3 60 61 69
3 60 69 68
3 61 62 70
3 61 70 69
3 62 63 71
3 62 71 70
3 63 64 72
3 63 72 71
3 64 65 73
3 64 73 72
3 65 18 19
3 65 19 73
3 6 66 74
3 6 74 7
3 66 67 75
3 66 75 74
3 67 68 76
3 67 76 75
3 68 69 77
3 68 77 76
3 69 70 78
3 69 78 77
3 70 71 79
3 70 79 78
3 71 72 80
3 71 80 79
3 72 73 81
3 72 81 80
3 73 19 20
3 73 20 81
3 7 74 82
3 7 82 8
3 74 75 83
3 74 83 82
3 75 76 84
3 75 84 83
3 76 77 85
3 76 85 84
3 77 78 86
3 77 86 85
3 78 79 87
3 78 87 86
3 79 80 88
3 79 88 87
3 80 81 89
3 80 89 88
3 81 20 21
3 81 21 89
3 8 82 90
3 8 90 9
3 82 83 91
3 82 91 90
3 83 84 92
3 83 92 91
3 84 85 93
3 84 93 92
3 85 86 94
3 85 94 93
3 86 87 95
3 86 95 94
3 87 88 96
3 87 96 95
3 88 89 97
3 88 97 96
3 89 21 22
3 89 22 97
3 9 90 98
3 9 98 10
3 90 91 99
3 90 99 98
3 91 92 100
3 91 100 99
3 92 93 101
3 92 101 100
3 93 94 102
3 93 102 101
3 94 95 103
3 94 103 102
3 95 96 104
3 95 104 103
3 96 97 105
3 96 105 104
3 97 22 23
3 97 23 105
3 10 98 106
3 10 106 11
3 98 99 107
3 98 107 106
3 99 100 108
3 99 108 107
3 100 101 109
3 100 109 108
3 101 102 110
3 101 110 109
3 102 103 111
3 102 111 110
3 103 104 112
3 103 112 111
3 104 105 113
3 104 113 112
3 105 23 24
3 105 24 113
3 11 106 114
3 11 114 12
3 106 107 115
3 106 115 114
3 107 108 116
3 107 116 115
3 108 109 117
3 108 117 116
3 109 110 118
3 109 118 117
3 110 111 119
3 110 119 118
3 111 112 120
3 111 120 119
3 112 113 121
3 112 121 120
3 113 24 25
3 113 25 121
3 12 114 26
3 12 26 0
3 114 115 28
3 114 28 26
3 115 116 30
3 115 30 28
3 116 117 32
3 116 32 30
3 117 118 34
3 117 34 32
3 118 119 36
3 118 36 34
3 119 120 38
3 119 38 36
3 120 121 40
3 120 40 38
3 121 25 13
3 121 13 40
